<?xml version="1.0" encoding="UTF-8" standalone="no"?>
<!-- Created with Inkscape (http://www.inkscape.org/) -->

<svg
   xmlns:dc="http://purl.org/dc/elements/1.1/"
   xmlns:cc="http://creativecommons.org/ns#"
   xmlns:rdf="http://www.w3.org/1999/02/22-rdf-syntax-ns#"
   xmlns:svg="http://www.w3.org/2000/svg"
   xmlns="http://www.w3.org/2000/svg"
   xmlns:sodipodi="http://sodipodi.sourceforge.net/DTD/sodipodi-0.dtd"
   xmlns:inkscape="http://www.inkscape.org/namespaces/inkscape"
   width="393.97653"
   height="363.42227"
   id="svg2"
   version="1.1"
   inkscape:version="0.48.4 r9939"
   sodipodi:docname="heart_B_3.svg">
  <defs
     id="defs4">
    <marker
       inkscape:r_cy="true"
       inkscape:r_cx="true"
       style="overflow:visible"
       id="Arrow1Lstart"
       refX="0"
       refY="0"
       orient="auto"
       inkscape:stockid="Arrow1Lstart">
      <path
         inkscape:r_cy="true"
         inkscape:r_cx="true"
         transform="scale(0.8,0.8)"
         style="fill-rule:evenodd;stroke:#000000;stroke-width:1pt;marker-start:none"
         d="M 0,0 L 5,-5 L -12.5,0 L 5,5 L 0,0 z "
         id="path12217" />
    </marker>
    <marker
       inkscape:r_cy="true"
       inkscape:r_cx="true"
       style="overflow:visible"
       id="Arrow2Send"
       refX="0"
       refY="0"
       orient="auto"
       inkscape:stockid="Arrow2Send">
      <path
         inkscape:r_cy="true"
         inkscape:r_cx="true"
         transform="matrix(-0.3,0,0,-0.3,1.5,0)"
         d="M 8.7185878,4.0337352 L -2.2072895,0.016013256 L 8.7185884,-4.0017078 C 6.97309,-1.6296469 6.9831476,1.6157441 8.7185878,4.0337352 z "
         style="font-size:12px;fill-rule:evenodd;stroke-width:0.625;stroke-linejoin:round"
         id="path12184" />
    </marker>
    <marker
       inkscape:r_cy="true"
       inkscape:r_cx="true"
       style="overflow:visible"
       id="Dot_l"
       refX="0"
       refY="0"
       orient="auto"
       inkscape:stockid="Dot_l">
      <path
         inkscape:r_cy="true"
         inkscape:r_cx="true"
         transform="matrix(0.8,0,0,0.8,5.700394,0.8)"
         style="fill-rule:evenodd;stroke:#000000;stroke-width:1pt;marker-start:none;marker-end:none"
         d="M -2.5,-1 C -2.5,1.76 -4.74,4 -7.5,4 C -10.26,4 -12.5,1.76 -12.5,-1 C -12.5,-3.76 -10.26,-6 -7.5,-6 C -4.74,-6 -2.5,-3.76 -2.5,-1 z "
         id="path12152" />
    </marker>
  </defs>
  <sodipodi:namedview
     id="base"
     pagecolor="#ffffff"
     bordercolor="#666666"
     borderopacity="1.0"
     inkscape:pageopacity="0.0"
     inkscape:pageshadow="2"
     inkscape:zoom="1.8966854"
     inkscape:cx="16.307724"
     inkscape:cy="183.39156"
     inkscape:document-units="px"
     inkscape:current-layer="layer4"
     showgrid="true"
     inkscape:window-width="1920"
     inkscape:window-height="1145"
     inkscape:window-x="1918"
     inkscape:window-y="-3"
     inkscape:window-maximized="1">
    <inkscape:grid
       type="xygrid"
       id="grid3025" />
  </sodipodi:namedview>
  <metadata
     id="metadata7">
    <rdf:RDF>
      <cc:Work
         rdf:about="">
        <dc:format>image/svg+xml</dc:format>
        <dc:type
           rdf:resource="http://purl.org/dc/dcmitype/StillImage" />
        <dc:title />
      </cc:Work>
    </rdf:RDF>
  </metadata>
  <g
     inkscape:groupmode="layer"
     id="layer4"
     inkscape:label="Layer 4"
     style="display:inline">
    <path
       style="fill:#f30000;fill-opacity:1;stroke:#000000;stroke-width:2;stroke-linecap:butt;stroke-linejoin:miter;stroke-miterlimit:4;stroke-opacity:1;stroke-dasharray:none;display:inline"
       d="m 197.25161,336.97936 c 4.80055,0 86.40986,-100.81151 144.01643,-148.81698 18.4394,-15.36619 55.12094,-79.11685 -9.6011,-139.215883 -64.72204,-60.099038 -134.41533,19.202192 -134.41533,19.202192 0,0 -72.00822,-81.609313 -139.215904,-14.401645 C -9.1719631,120.95473 46.072014,179.55153 62.836254,192.96292 110.84174,231.36731 192.45106,336.97936 197.25161,336.97936 z"
       id="path3029-9"
       inkscape:connector-curvature="0"
       sodipodi:nodetypes="sszczss" />
    <path
       sodipodi:type="star"
       style="color:#000000;fill:#55d400;fill-opacity:1;fill-rule:nonzero;stroke:#000000;stroke-width:1;stroke-linejoin:miter;stroke-miterlimit:4;stroke-opacity:1;stroke-dasharray:none;stroke-dashoffset:0;marker:none;visibility:visible;display:inline;overflow:visible;enable-background:accumulate"
       id="path3096-1"
       sodipodi:sides="16"
       sodipodi:cx="-95"
       sodipodi:cy="88.422272"
       sodipodi:r1="96.176918"
       sodipodi:r2="41.231056"
       sodipodi:arg1="2.0576956"
       sodipodi:arg2="2.896614"
       inkscape:flatsided="false"
       inkscape:rounded="0"
       inkscape:randomized="0"
       d="m -140,173.42227 5,-74.999999 -34.10267,51.308999 33.32065,-67.377541 -51.14186,34.352811 56.56854,-49.497472 -60.39517,12.166713 71.20438,-24.081856 L -180,43.422269 -105,48.422272 -156.309,14.3196 -88.931458,47.640256 -123.28427,-3.5016088 -73.786796,53.066933 -85.953509,-7.3282403 -61.871653,63.876139 -49.999998,3.4222756 -55,78.422272 -20.897329,27.11327 -54.217984,94.490814 -3.0761195,60.138005 -59.644661,109.63548 0.75051208,97.468763 -70.453868,121.55062 l 60.453864,11.87165 -74.999996,-5 51.309001,34.10267 -67.377541,-33.32065 34.352807,51.14186 -49.497467,-56.56854 12.16671,60.39517 -24.08186,-71.20438 z"
       inkscape:transform-center-x="-1.766161"
       inkscape:transform-center-y="-1.6649219"
       transform="matrix(0,0.39744827,-0.39744827,0,236.82897,203.02649)" />
  </g>
  <g
     style="display:none"
     inkscape:label="Layer 3"
     id="layer3"
     inkscape:groupmode="layer">
    <path
       sodipodi:nodetypes="sszczss"
       inkscape:connector-curvature="0"
       id="path3854"
       d="m 197.22008,318.39623 c 4.226,0 76.06797,-88.74597 126.77996,-131.00595 16.2325,-13.5271 48.52384,-69.64783 -8.452,-122.553968 -56.97585,-52.90614 -118.32796,16.903995 -118.32796,16.903995 0,0 -63.38998,-71.8419766 -122.553959,-12.677997 -59.16398,59.16399 -10.531828,110.7477 4.225999,122.55396 42.25998,33.80799 114.10196,126.77996 118.32796,126.77996 z"
       style="fill:#dc0000;fill-opacity:1;stroke:#000000;stroke-width:2;stroke-linecap:butt;stroke-linejoin:miter;stroke-miterlimit:4;stroke-opacity:1;stroke-dasharray:none" />
    <path
       sodipodi:type="star"
       style="color:#000000;fill:#55d400;fill-opacity:1;fill-rule:nonzero;stroke:#000000;stroke-width:1;stroke-linejoin:miter;stroke-miterlimit:4;stroke-opacity:1;stroke-dasharray:none;stroke-dashoffset:0;marker:none;visibility:visible;display:inline;overflow:visible;enable-background:accumulate"
       id="path3096-8"
       sodipodi:sides="16"
       sodipodi:cx="-95"
       sodipodi:cy="88.422272"
       sodipodi:r1="96.176918"
       sodipodi:r2="41.231056"
       sodipodi:arg1="2.0576956"
       sodipodi:arg2="2.896614"
       inkscape:flatsided="false"
       inkscape:rounded="0"
       inkscape:randomized="0"
       d="m -140,173.42227 5,-74.999999 -34.10267,51.308999 33.32065,-67.377541 -51.14186,34.352811 56.56854,-49.497472 -60.39517,12.166713 71.20438,-24.081856 L -180,43.422269 -105,48.422272 -156.309,14.3196 -88.931458,47.640256 -123.28427,-3.5016088 -73.786796,53.066933 -85.953509,-7.3282403 -61.871653,63.876139 -49.999998,3.4222756 -55,78.422272 -20.897329,27.11327 -54.217984,94.490814 -3.0761195,60.138005 -59.644661,109.63548 0.75051208,97.468763 -70.453868,121.55062 l 60.453864,11.87165 -74.999996,-5 51.309001,34.10267 -67.377541,-33.32065 34.352807,51.14186 -49.497467,-56.56854 12.16671,60.39517 -24.08186,-71.20438 z"
       inkscape:transform-center-x="-0.69707419"
       inkscape:transform-center-y="-2.3249448"
       transform="matrix(0.19872414,0.3442003,-0.3442003,0.19872414,249.93037,179.73627)" />
  </g>
  <g
     style="display:none"
     inkscape:label="Layer 2"
     id="layer2"
     inkscape:groupmode="layer">
    <path
       sodipodi:nodetypes="sszczss"
       inkscape:connector-curvature="0"
       id="path3850"
       d="m 197.19381,302.90759 c 3.74712,0 67.44823,-78.68961 112.41373,-116.16085 14.39309,-11.99426 43.0253,-61.7556 -7.49425,-108.666613 -50.51956,-46.911016 -104.91948,14.988498 -104.91948,14.988498 0,0 -56.20687,-63.701115 -108.666606,-11.241374 -52.45974,52.459749 -9.3384,98.198189 3.747125,108.666609 37.471231,29.977 101.172351,112.41373 104.919481,112.41373 z"
       style="fill:#b10000;fill-opacity:1;stroke:#000000;stroke-width:2;stroke-linecap:butt;stroke-linejoin:miter;stroke-miterlimit:4;stroke-opacity:1;stroke-dasharray:none" />
    <path
       sodipodi:type="star"
       style="color:#000000;fill:#55d400;fill-opacity:1;fill-rule:nonzero;stroke:#000000;stroke-width:1;stroke-linejoin:miter;stroke-miterlimit:4;stroke-opacity:1;stroke-dasharray:none;stroke-dashoffset:0;marker:none;visibility:visible;display:inline;overflow:visible;enable-background:accumulate"
       id="path3096-4"
       sodipodi:sides="16"
       sodipodi:cx="-95"
       sodipodi:cy="88.422272"
       sodipodi:r1="96.176918"
       sodipodi:r2="41.231056"
       sodipodi:arg1="2.0576956"
       sodipodi:arg2="2.896614"
       inkscape:flatsided="false"
       inkscape:rounded="0"
       inkscape:randomized="0"
       d="m -140,173.42227 5,-74.999999 -34.10267,51.308999 33.32065,-67.377541 -51.14186,34.352811 56.56854,-49.497472 -60.39517,12.166713 71.20438,-24.081856 L -180,43.422269 -105,48.422272 -156.309,14.3196 -88.931458,47.640256 -123.28427,-3.5016088 -73.786796,53.066933 -85.953509,-7.3282403 -61.871653,63.876139 -49.999998,3.4222756 -55,78.422272 -20.897329,27.11327 -54.217984,94.490814 -3.0761195,60.138005 -59.644661,109.63548 0.75051208,97.468763 -70.453868,121.55062 l 60.453864,11.87165 -74.999996,-5 51.309001,34.10267 -67.377541,-33.32065 34.352807,51.14186 -49.497467,-56.56854 12.16671,60.39517 -24.08186,-71.20438 z"
       inkscape:transform-center-x="0.55878753"
       inkscape:transform-center-y="-2.3619962"
       transform="matrix(0.3442003,0.19872413,-0.19872413,0.3442003,249.63141,153.01565)" />
  </g>
  <g
     inkscape:groupmode="layer"
     id="layer1"
     inkscape:label="Layer 1"
     style="display:none">
    <path
       style="fill:#dc0000;fill-opacity:1;stroke:#000000;stroke-width:2;stroke-linecap:butt;stroke-linejoin:miter;stroke-miterlimit:4;stroke-opacity:1;stroke-dasharray:none"
       d="m 197.22008,318.39623 c 4.226,0 76.06797,-88.74597 126.77996,-131.00595 16.2325,-13.5271 48.52384,-69.64783 -8.452,-122.553968 -56.97585,-52.90614 -118.32796,16.903995 -118.32796,16.903995 0,0 -63.38998,-71.8419766 -122.553959,-12.677997 -59.16398,59.16399 -10.531828,110.7477 4.225999,122.55396 42.25998,33.80799 114.10196,126.77996 118.32796,126.77996 z"
       id="path3029"
       inkscape:connector-curvature="0"
       sodipodi:nodetypes="sszczss" />
    <path
       sodipodi:type="star"
       style="color:#000000;fill:#55d400;fill-opacity:1;fill-rule:nonzero;stroke:#000000;stroke-width:1;stroke-linejoin:miter;stroke-miterlimit:4;stroke-opacity:1;stroke-dasharray:none;stroke-dashoffset:0;marker:none;visibility:visible;display:inline;overflow:visible;enable-background:accumulate"
       id="path3096"
       sodipodi:sides="16"
       sodipodi:cx="-95"
       sodipodi:cy="88.422272"
       sodipodi:r1="96.176918"
       sodipodi:r2="41.231056"
       sodipodi:arg1="2.0576956"
       sodipodi:arg2="2.896614"
       inkscape:flatsided="false"
       inkscape:rounded="0"
       inkscape:randomized="0"
       d="m -140,173.42227 5,-74.999999 -34.10267,51.308999 33.32065,-67.377541 -51.14186,34.352811 56.56854,-49.497472 -60.39517,12.166713 71.20438,-24.081856 L -180,43.422269 -105,48.422272 -156.309,14.3196 -88.931458,47.640256 -123.28427,-3.5016088 -73.786796,53.066933 -85.953509,-7.3282403 -61.871653,63.876139 -49.999998,3.4222756 -55,78.422272 -20.897329,27.11327 -54.217984,94.490814 -3.0761195,60.138005 -59.644661,109.63548 0.75051208,97.468763 -70.453868,121.55062 l 60.453864,11.87165 -74.999996,-5 51.309001,34.10267 -67.377541,-33.32065 34.352807,51.14186 -49.497467,-56.56854 12.16671,60.39517 -24.08186,-71.20438 z"
       inkscape:transform-center-x="1.6649257"
       inkscape:transform-center-y="-1.7661573"
       transform="matrix(0.39744827,0,0,0.39744827,236.01219,130.02439)" />
  </g>
</svg>
